<svg width="71" height="70" fill="none" xmlns="http://www.w3.org/2000/svg"><g clip-path="url(#clip0_5_94)" fill="#F2994A"><path d="M70.365 38.234a27.67 27.67 0 00-7.953-16.782 27.455 27.455 0 00-13.505-7.416v-3.473a4.656 4.656 0 003.526-4.511 4.654 4.654 0 00-4.648-4.649H37.94a4.654 4.654 0 00-4.649 4.649 4.656 4.656 0 003.527 4.51v3.484a27.451 27.451 0 00-13.464 7.406c-.84.84-1.613 1.72-2.322 2.635-.034-.003-.068-.006-.103-.006h-9.743a1.367 1.367 0 000 2.735h7.986a27.406 27.406 0 00-2.426 5.255H1.867a1.367 1.367 0 000 2.734h14.108c-.394 1.73-.62 3.49-.679 5.255H9.25a1.367 1.367 0 000 2.735h6.09c.115 1.77.4 3.53.853 5.255H7.336a1.367 1.367 0 000 2.734h9.73a27.456 27.456 0 006.289 9.726 27.668 27.668 0 0016.799 7.954 27.3 27.3 0 002.71.133c5.334 0 10.602-1.544 15.071-4.454a1.367 1.367 0 10-1.492-2.291c-9.783 6.37-22.886 4.993-31.155-3.276-9.702-9.702-9.702-25.488 0-35.19 9.702-9.702 25.488-9.702 35.19 0 8.258 8.258 9.643 21.349 3.294 31.127a1.367 1.367 0 102.293 1.49c3.392-5.225 4.92-11.536 4.3-17.77zM36.027 6.052c0-1.056.858-1.914 1.914-1.914h9.844c1.055 0 1.914.858 1.914 1.914a1.916 1.916 0 01-1.914 1.914H37.94a1.916 1.916 0 01-1.914-1.914zm3.526 7.524V10.7h6.62v2.871a27.857 27.857 0 00-6.62.005z"/><path d="M61.446 58.175c-.361 0-.712.146-.966.4a1.372 1.372 0 00-.401.967 1.372 1.372 0 001.367 1.367c.36 0 .71-.145.967-.4.254-.255.4-.607.4-.967s-.146-.712-.4-.967a1.38 1.38 0 00-.967-.4zM42.884 19.771c-11.695 0-21.21 9.515-21.21 21.21S31.19 62.19 42.884 62.19s21.209-9.514 21.209-21.21c0-11.694-9.515-21.209-21.21-21.209zm0 39.685c-10.188 0-18.475-8.288-18.475-18.475 0-10.188 8.287-18.475 18.475-18.475 10.187 0 18.474 8.288 18.474 18.475 0 10.187-8.287 18.475-18.474 18.475z"/><path d="M51.532 30.399L44.76 37.17a4.223 4.223 0 00-1.877-.438 4.22 4.22 0 00-1.876.438l-3.03-3.03a1.367 1.367 0 00-1.934 1.933l3.03 3.03a4.22 4.22 0 00-.438 1.877 4.253 4.253 0 004.248 4.249 4.253 4.253 0 004.249-4.248c0-.674-.158-1.31-.438-1.877l6.573-6.573.198-.199a1.367 1.367 0 00-1.933-1.933zm-8.648 12.096c-.835 0-1.514-.68-1.514-1.514 0-.835.679-1.514 1.514-1.514.834 0 1.514.679 1.514 1.514 0 .834-.68 1.514-1.515 1.514zm14.618-2.865h-1.267a1.367 1.367 0 000 2.734h1.267a1.367 1.367 0 000-2.734zm-27.97-.033h-1.267a1.367 1.367 0 000 2.734h1.267a1.367 1.367 0 000-2.734zM42.9 28.996c.755 0 1.367-.612 1.367-1.367v-1.267a1.367 1.367 0 00-2.734 0v1.267c0 .755.612 1.367 1.367 1.367zm-.033 23.969c-.755 0-1.367.612-1.367 1.367V55.6a1.367 1.367 0 002.734 0v-1.267c0-.755-.612-1.367-1.367-1.367zm-41-4.915c-.36 0-.712.146-.966.4a1.374 1.374 0 00-.401.966c0 .361.146.713.4.967.255.254.608.4.967.4.36 0 .712-.146.967-.4.254-.254.4-.607.4-.967s-.146-.712-.4-.966a1.377 1.377 0 00-.967-.4z"/></g><defs><clipPath id="clip0_5_94"><path fill="#fff" transform="translate(.5)" d="M0 0h70v70H0z"/></clipPath></defs></svg>