<svg width="70" height="70" fill="none" xmlns="http://www.w3.org/2000/svg"><g clip-path="url(#clip0_5_121)" fill="#F2994A"><path d="M33.819 26.69a1.035 1.035 0 001.56-.177l6.825-10.3a1.026 1.026 0 00-1.71-1.133l-6.15 9.282-3.417-3.245a1.026 1.026 0 00-1.412 1.488l4.304 4.086z"/><path d="M34.518 42.33c.196.09.413.138.629.138h.008a1.5 1.5 0 00.636-.145c15.593-7.416 18.235-23.415 18.673-28.142a2.451 2.451 0 00-1.512-2.5 8.961 8.961 0 01-5.506-7.522 2.025 2.025 0 00-2.01-1.835h-.012l-21.007.124a2.007 2.007 0 00-2 1.872 8.963 8.963 0 01-5.427 7.575 2.442 2.442 0 00-1.473 2.514c.493 4.722 3.323 20.69 19.001 27.922zM17.797 13.78a11.004 11.004 0 006.662-9.282l20.947-.123a11.006 11.006 0 006.76 9.199c.17.07.273.239.257.418-.412 4.43-2.872 19.367-17.28 26.367-14.49-6.83-17.124-21.738-17.588-26.163a.404.404 0 01.242-.416z"/><path d="M20.357 19.465c.124.456.702.873 1.259.72.546-.15.869-.712.72-1.258a33.792 33.792 0 01-.653-2.905 14.42 14.42 0 005.867-7.689l14.809-.087a14.42 14.42 0 005.957 7.62 33.76 33.76 0 01-.62 2.914 1.026 1.026 0 101.986.514c.293-1.134.533-2.286.71-3.422.1-.635-.191-1.26-.74-1.59a12.375 12.375 0 01-5.441-6.976 1.586 1.586 0 00-1.507-1.113h-.01l-15.504.09c-.69.005-1.31.47-1.503 1.132a12.376 12.376 0 01-5.36 7.039 1.567 1.567 0 00-.72 1.599c.191 1.134.443 2.281.75 3.412zm27.252 3.04a1.025 1.025 0 00-1.339.556c-2.37 5.744-6.12 10.11-11.153 12.984-5.07-2.818-8.876-7.148-11.312-12.873a1.026 1.026 0 00-1.888.803c2.66 6.248 6.848 10.957 12.451 13.998a1.57 1.57 0 001.521-.009c5.56-3.102 9.691-7.853 12.277-14.12a1.024 1.024 0 00-.557-1.34zM6.579 54.794c-2 0-3.628 1.627-3.628 3.627 0 2 1.628 3.628 3.628 3.628s3.628-1.627 3.628-3.628c0-2-1.627-3.627-3.628-3.627zm0 5.204a1.578 1.578 0 010-3.154c.87 0 1.578.708 1.578 1.577a1.58 1.58 0 01-1.578 1.577z"/><path d="M69.264 44.755a4.271 4.271 0 00-5.898-1.141L49.96 52.586l-2.861-.161-.074-.733a6.223 6.223 0 00-5.387-5.566l-14.444-1.265c-.489-.077-2.053-.526-6.351-2.991a15.95 15.95 0 00-7.308-2.103v-2.682a2.444 2.444 0 00-2.442-2.442H2.441A2.444 2.444 0 000 37.085v26.42a2.444 2.444 0 002.441 2.441h8.653a2.444 2.444 0 002.442-2.441v-.728l12.626 4.781c.028.011 1.053.395 2.938.217l20.98-3.025.015-.002a10.314 10.314 0 004.889-2.19l.037-.032 13.55-12.187a4.272 4.272 0 00.694-5.584zm-2.06 4.055L53.67 60.984a8.263 8.263 0 01-3.89 1.737l-20.964 3.023-.018.002-.01.002a4.604 4.604 0 01-1.942-.124l-13.31-5.04v-11.71a1.025 1.025 0 10-2.05 0v14.631a.39.39 0 01-.39.39H2.44a.39.39 0 01-.39-.39v-26.42a.39.39 0 01.39-.39h8.653a.39.39 0 01.39.39v7.157a1.025 1.025 0 102.052 0V41.82c2.2.097 4.363.725 6.287 1.83 5.184 2.972 6.632 3.177 7.108 3.245l.054.006 14.446 1.266a4.178 4.178 0 013.555 3.728l.054.546-19.34 1.195-.038-.004a2.337 2.337 0 01-1.595-.834 1.025 1.025 0 10-1.575 1.313c.752.903 1.814 1.442 2.987 1.564.634.066 20.69-1.248 20.69-1.248l4.02.225a1.02 1.02 0 00.627-.172l13.692-9.163a2.216 2.216 0 013.06.591 2.218 2.218 0 01-.364 2.902z"/></g><defs><clipPath id="clip0_5_121"><path fill="#fff" d="M0 0h70v70H0z"/></clipPath></defs></svg>