<svg width="70" height="70" fill="none" xmlns="http://www.w3.org/2000/svg"><g clip-path="url(#clip0_5_56)"><path d="M50.039 54.14a1.368 1.368 0 10.001 2.736 1.368 1.368 0 00-.001-2.735z" fill="#000"/><path d="M53.405 49.72l-6.498-2.166-2.333-4.666c2.102-2.139 3.561-4.97 4.053-7.921l.291-1.744h2.488a4.106 4.106 0 004.102-4.102v-8.613C55.508 9.2 46.308 0 35 0 23.663 0 14.492 9.174 14.492 20.508v8.613a4.108 4.108 0 002.735 3.867v1.602a4.106 4.106 0 004.101 4.102h1.2a14.835 14.835 0 002.896 4.199l-2.331 4.663-6.498 2.166c-7.556 2.52-13.04 10.474-13.04 18.913 0 .755.612 1.367 1.367 1.367h60.156c.755 0 1.367-.612 1.367-1.367 0-8.44-5.484-16.394-13.04-18.913zm-.632-20.599c0 .754-.613 1.367-1.367 1.367H49.32a89.35 89.35 0 00.672-8.378l.007-.235h2.774v7.246zm-34.18 1.367a1.369 1.369 0 01-1.366-1.367v-7.246h2.775l.014.43v.016a88.81 88.81 0 00.665 8.167h-2.087zm2.735 5.47a1.369 1.369 0 01-1.367-1.368v-1.367h1.12l.292 1.744a14 14 0 00.202.99h-.247zM19.963 19.14H17.28C17.972 9.977 25.619 2.734 35 2.734c9.341 0 17.022 7.242 17.722 16.406h-2.684c-.099-7.55-6.247-13.672-13.813-13.672h-2.448c-7.565 0-13.715 6.121-13.813 13.672zM33.776 8.203h2.448c6.126 0 11.084 5.011 11.08 11.13 0 .43-.003.806-.01 1.146v.014l-1.71-.245a21.969 21.969 0 01-12.352-6.175 1.367 1.367 0 00-.966-.4 12.369 12.369 0 00-9.51 4.498c.572-5.567 5.279-9.968 11.02-9.968zM24.41 35.957c-.685-2.276-1.468-8.976-1.64-13.269l1.84-2.453a9.624 9.624 0 017.115-3.813 24.729 24.729 0 0013.472 6.533l2.013.288a84.133 84.133 0 01-.803 8.356v.003c-.126.847-.225 1.392-.477 2.915-.724 4.343-3.965 8.27-8.242 9.34a11.12 11.12 0 01-5.375 0c-2.671-.668-5.12-2.516-6.701-5.165h2.787a4.108 4.108 0 003.867 2.734H35a4.1 4.1 0 100-8.203h-2.734a4.104 4.104 0 00-3.87 2.734H24.41zm7.74 10.666c.938.198 1.894.3 2.85.3.748 0 1.496-.064 2.236-.185l-2.416 2.555-2.67-2.67zm.79 4.658l-4.336 4.585a52.097 52.097 0 01-3.061-7.098l1.628-3.257 5.77 5.77zm9.657-6.233l1.86 3.72a52.08 52.08 0 01-3.062 7.1l-4.641-4.64 5.843-6.18zm-11.699-7.724c0-.754.613-1.367 1.368-1.367H35a1.367 1.367 0 010 2.734h-2.734a1.369 1.369 0 01-1.368-1.367zM6.344 67.267c.542-6.773 5.049-12.93 11.115-14.952l5.755-1.918a54.804 54.804 0 003.892 8.441l.007.014a54.83 54.83 0 003.743 5.715l1.682 2.7H6.344zM35 66.047l-1.854-2.977a1.378 1.378 0 00-.067-.097A52.14 52.14 0 0130 58.371l4.876-5.156 5.137 5.137a52.072 52.072 0 01-3.091 4.62c-.067.09.028-.05-1.921 3.075zm2.462 1.219l1.682-2.7a54.787 54.787 0 003.769-5.76l.02-.037.002-.004a54.755 54.755 0 003.85-8.369l5.756 1.918c6.066 2.023 10.573 8.179 11.115 14.952H37.462z" fill="#F2994A"/><path d="M59.547 61.733a13.668 13.668 0 00-3.87-4.699 1.367 1.367 0 10-1.667 2.168 10.92 10.92 0 013.09 3.753 1.367 1.367 0 002.447-1.222z" fill="#000"/></g><defs><clipPath id="clip0_5_56"><path fill="#fff" d="M0 0h70v70H0z"/></clipPath></defs></svg>