<svg width="16" height="8" fill="none" xmlns="http://www.w3.org/2000/svg"><mask id="path-1-inside-1_100_378" fill="#fff"><path fill-rule="evenodd" clip-rule="evenodd" d="M0 4.427c0-.106.06-.207.167-.281a.718.718 0 01.404-.116h13.477l-3.596-2.498c-.107-.075-.168-.176-.168-.281 0-.106.06-.207.168-.281a.719.719 0 01.405-.117c.151 0 .297.042.404.117l4.571 3.176a.41.41 0 01.124.129c.03.048.044.1.044.152a.295.295 0 01-.044.152.424.424 0 01-.124.129l-4.571 3.176a.718.718 0 01-.404.116.719.719 0 01-.405-.116c-.107-.075-.168-.176-.168-.281 0-.106.06-.207.168-.282l3.596-2.497H.571a.718.718 0 01-.404-.117C.06 4.633 0 4.532 0 4.427z"/></mask><path d="M0 4.427h-3 3zm14.048-.397v3h9.579L15.76 1.566 14.048 4.03zm-3.596-2.498L8.74 3.996l1.712-2.464zm.405-.679v-3 3zm.404.117l1.712-2.464L11.26.97zm4.571 3.176L14.12 6.609l.003.002 1.71-2.465zm0 .562l-1.709-2.466-.003.002 1.712 2.464zm-4.571 3.176l1.712 2.463-1.712-2.463zM10.857 8v3-3zm-.405-.679L8.74 4.857l1.71 2.464zm3.596-2.497l1.712 2.464 7.867-5.464h-9.579v3zM3 4.427A2.655 2.655 0 011.88 6.61l-3.424-4.928C-2.241 2.166-3 3.1-3 4.427h6zM1.88 6.61c-.474.328-.95.42-1.309.42v-6c-.661 0-1.428.175-2.115.652L1.879 6.61zm-1.31.42h13.477v-6H.571v6zm15.19-5.464L12.163-.932 8.741 3.996l3.596 2.498 3.423-4.928zM12.164-.932a2.655 2.655 0 011.12 2.183h-6c0 1.326.76 2.26 1.456 2.745l3.424-4.928zm1.12 2.183a2.655 2.655 0 01-1.12 2.183L8.74-1.494c-.696.484-1.456 1.418-1.456 2.745h6zm-1.12 2.183c-.473.328-.95.42-1.307.42v-6a3.72 3.72 0 00-2.117.652l3.424 4.928zm-1.307.42c-.359 0-.835-.092-1.308-.42l3.424-4.928a3.716 3.716 0 00-2.117-.653v6zm-1.308-.42l4.571 3.175 3.424-4.927-4.571-3.176-3.424 4.928zm4.574 3.177a2.579 2.579 0 01-.742-.798l5.15-3.077a3.423 3.423 0 00-.99-1.056l-3.418 4.93zm-.742-.798A2.705 2.705 0 0113 4.427h6c0-.635-.183-1.214-.468-1.69L13.38 5.812zM13 4.427c0-.53.154-1.006.38-1.386l5.152 3.076A3.294 3.294 0 0019 4.427h-6zm.38-1.386c.222-.372.498-.63.743-.799l3.418 4.932c.351-.244.712-.59.99-1.057l-5.15-3.076zm.74-.797L9.55 5.42l3.423 4.927 4.57-3.175-3.423-4.928zM9.55 5.42c.472-.329.948-.42 1.306-.42v6c.662 0 1.43-.175 2.117-.653L9.549 5.42zM10.855 5c.359 0 .835.091 1.308.42L8.74 10.347a3.715 3.715 0 002.117.653V5zm1.308.42a2.655 2.655 0 011.12 2.183h-6c0 1.326.76 2.26 1.456 2.744l3.424-4.927zm1.12 2.183a2.655 2.655 0 01-1.12 2.182L8.74 4.858c-.696.484-1.456 1.418-1.456 2.745h6zm-1.12 2.182l3.596-2.497-3.423-4.928L8.74 4.857l3.422 4.928zm1.884-7.961H.571v6h13.477v-6zm-13.477 0c.36 0 .835.091 1.308.42L-1.544 7.17a3.715 3.715 0 002.115.653v-6zm1.308.42A2.655 2.655 0 013 4.427h-6c0 1.326.76 2.26 1.456 2.744l3.423-4.927z" fill="#000" mask="url(#path-1-inside-1_100_378)"/></svg>