<svg width="23" height="23" fill="none" xmlns="http://www.w3.org/2000/svg"><g clip-path="url(#clip0_77_5)"><path d="M11.5 0C5.15 0 0 5.149 0 11.5S5.15 23 11.5 23 23 17.851 23 11.5 17.851 0 11.5 0zM7.367 4.568c.237-.014.451.128.614.379l1.572 2.982a.865.865 0 01-.175.984l-.72.72a.353.353 0 00-.075.205c.276 1.069 1.114 2.055 1.853 2.733.74.678 1.534 1.596 2.565 1.814.127.035.283.048.375-.037l.836-.852c.29-.219.707-.325 1.015-.146h.014l2.837 1.675c.417.261.46.766.162 1.072l-1.954 1.94c-.289.295-.672.395-1.045.395-1.647-.05-3.204-.858-4.482-1.689-2.099-1.526-4.024-3.42-5.232-5.708-.464-.959-1.008-2.183-.956-3.254.005-.402.114-.797.397-1.057L6.922 4.77a.764.764 0 01.445-.202z" fill="#F2994A"/></g><defs><clipPath id="clip0_77_5"><path fill="#fff" d="M0 0h23v23H0z"/></clipPath></defs></svg>