<svg width="758" height="693" fill="none" xmlns="http://www.w3.org/2000/svg"><path fill-rule="evenodd" clip-rule="evenodd" d="M-157.818 89.985l32.355-9.876c32.354-9.876 97.064-29.629 146.375-14.9 48.712 14.448 81.427 63.097 114.142 111.747 32.714 48.649 66.028 97.578 105.142 132.547 39.113 34.969 84.626 56.258 139.737 57.026 55.112.768 34.956 27.203 90.067 27.971 55.111.768 149 0 222.002 17.958 36.513 42.089 37.34-2.123 50.498 29.042h-50.498L661 435l-47 6.5c-22.756-10.644-17.888 15.069-64-6.5-45.513-21.289-34.487 21.289-80 0s-93.487 13.789-139-7.5c-45.513-21.289-127.987 35.289-173.5 14C111.987 420.211 44.513 456.289-1 435c-45.513-21.289-89.35-13.334-134.863-34.622l-114.381-53.502L-273 336.232l115.182-246.247z" fill="#F2994A" fill-opacity=".52"/><g filter="url(#filter0_d_79_54)"><circle cx="148.841" cy="176.841" r="53.387" transform="rotate(-78.662 148.841 176.841)" fill="#FFA758"/></g><g filter="url(#filter1_d_79_54)"><circle cx="230.45" cy="224.45" r="22.026" transform="rotate(-99.787 230.45 224.45)" fill="#FE9335"/></g><g filter="url(#filter2_d_79_54)"><circle cx="387.392" cy="342.205" r="33.227" transform="rotate(-99.787 387.392 342.205)" fill="#F5B072"/></g><g filter="url(#filter3_d_79_54)"><circle cx="373.151" cy="311.949" r="10.341" transform="rotate(-99.787 373.151 311.949)" fill="#FE9335"/></g><defs><filter id="filter0_d_79_54" x="91.444" y="123.444" width="114.794" height="114.794" filterUnits="userSpaceOnUse" color-interpolation-filters="sRGB"><feFlood flood-opacity="0" result="BackgroundImageFix"/><feColorMatrix in="SourceAlpha" values="0 0 0 0 0 0 0 0 0 0 0 0 0 0 0 0 0 0 127 0" result="hardAlpha"/><feOffset dy="4"/><feGaussianBlur stdDeviation="2"/><feColorMatrix values="0 0 0 0 0 0 0 0 0 0 0 0 0 0 0 0 0 0 0.25 0"/><feBlend in2="BackgroundImageFix" result="effect1_dropShadow_79_54"/><feBlend in="SourceGraphic" in2="effect1_dropShadow_79_54" result="shape"/></filter><filter id="filter1_d_79_54" x="204.42" y="202.42" width="52.059" height="52.059" filterUnits="userSpaceOnUse" color-interpolation-filters="sRGB"><feFlood flood-opacity="0" result="BackgroundImageFix"/><feColorMatrix in="SourceAlpha" values="0 0 0 0 0 0 0 0 0 0 0 0 0 0 0 0 0 0 127 0" result="hardAlpha"/><feOffset dy="4"/><feGaussianBlur stdDeviation="2"/><feColorMatrix values="0 0 0 0 0 0 0 0 0 0 0 0 0 0 0 0 0 0 0.25 0"/><feBlend in2="BackgroundImageFix" result="effect1_dropShadow_79_54"/><feBlend in="SourceGraphic" in2="effect1_dropShadow_79_54" result="shape"/></filter><filter id="filter2_d_79_54" x="350.16" y="308.973" width="74.465" height="74.465" filterUnits="userSpaceOnUse" color-interpolation-filters="sRGB"><feFlood flood-opacity="0" result="BackgroundImageFix"/><feColorMatrix in="SourceAlpha" values="0 0 0 0 0 0 0 0 0 0 0 0 0 0 0 0 0 0 127 0" result="hardAlpha"/><feOffset dy="4"/><feGaussianBlur stdDeviation="2"/><feColorMatrix values="0 0 0 0 0 0 0 0 0 0 0 0 0 0 0 0 0 0 0.25 0"/><feBlend in2="BackgroundImageFix" result="effect1_dropShadow_79_54"/><feBlend in="SourceGraphic" in2="effect1_dropShadow_79_54" result="shape"/></filter><filter id="filter3_d_79_54" x="358.809" y="301.606" width="28.686" height="28.686" filterUnits="userSpaceOnUse" color-interpolation-filters="sRGB"><feFlood flood-opacity="0" result="BackgroundImageFix"/><feColorMatrix in="SourceAlpha" values="0 0 0 0 0 0 0 0 0 0 0 0 0 0 0 0 0 0 127 0" result="hardAlpha"/><feOffset dy="4"/><feGaussianBlur stdDeviation="2"/><feColorMatrix values="0 0 0 0 0 0 0 0 0 0 0 0 0 0 0 0 0 0 0.25 0"/><feBlend in2="BackgroundImageFix" result="effect1_dropShadow_79_54"/><feBlend in="SourceGraphic" in2="effect1_dropShadow_79_54" result="shape"/></filter></defs></svg>