<svg width="932" height="809" fill="none" xmlns="http://www.w3.org/2000/svg"><path fill-rule="evenodd" clip-rule="evenodd" d="M1041.1 657.622l-30.13 8.71c-30.125 8.709-90.378 26.128-140.222 14.039-49.226-11.856-87.425-52.987-125.624-94.118-38.199-41.131-77.017-82.495-119.626-111.916-42.61-29.422-89.631-47.133-143.267-47.279-53.637-.146-114.508 17.04-168.145 16.894-53.637-.146-100.657-17.857-141.061-53.133-41.023-35.509-74.812-88.351-91.706-114.771l-16.894-26.421 117.678 2.351 88.631 23.353c23.51 8.855 12.879-36.582 60.518-18.637 47.02 17.711 35.056-93.928 82.077-76.217l141.68 53.366 141.061 53.133 141.68 53.367 141.062 53.133 118.168 44.511 23.51 8.855-79.39 210.78z" fill="#FF7E0C" fill-opacity=".52"/><g filter="url(#filter0_d_79_49)"><circle cx="783.459" cy="612.827" r="53.387" transform="rotate(96.91 783.459 612.827)" fill="#FFA758"/></g><g filter="url(#filter1_d_79_49)"><circle cx="705.847" cy="588.26" r="22.026" transform="rotate(75.785 705.847 588.26)" fill="#FE9335"/></g><g filter="url(#filter2_d_79_49)"><circle cx="602.157" cy="463.976" r="33.227" transform="rotate(75.785 602.157 463.976)" fill="#F5B072"/></g><defs><filter id="filter0_d_79_49" x="726.067" y="559.435" width="114.784" height="114.784" filterUnits="userSpaceOnUse" color-interpolation-filters="sRGB"><feFlood flood-opacity="0" result="BackgroundImageFix"/><feColorMatrix in="SourceAlpha" values="0 0 0 0 0 0 0 0 0 0 0 0 0 0 0 0 0 0 127 0" result="hardAlpha"/><feOffset dy="4"/><feGaussianBlur stdDeviation="2"/><feColorMatrix values="0 0 0 0 0 0 0 0 0 0 0 0 0 0 0 0 0 0 0.25 0"/><feBlend in2="BackgroundImageFix" result="effect1_dropShadow_79_49"/><feBlend in="SourceGraphic" in2="effect1_dropShadow_79_49" result="shape"/></filter><filter id="filter1_d_79_49" x="679.815" y="566.229" width="52.063" height="52.063" filterUnits="userSpaceOnUse" color-interpolation-filters="sRGB"><feFlood flood-opacity="0" result="BackgroundImageFix"/><feColorMatrix in="SourceAlpha" values="0 0 0 0 0 0 0 0 0 0 0 0 0 0 0 0 0 0 127 0" result="hardAlpha"/><feOffset dy="4"/><feGaussianBlur stdDeviation="2"/><feColorMatrix values="0 0 0 0 0 0 0 0 0 0 0 0 0 0 0 0 0 0 0.25 0"/><feBlend in2="BackgroundImageFix" result="effect1_dropShadow_79_49"/><feBlend in="SourceGraphic" in2="effect1_dropShadow_79_49" result="shape"/></filter><filter id="filter2_d_79_49" x="564.922" y="430.741" width="74.47" height="74.47" filterUnits="userSpaceOnUse" color-interpolation-filters="sRGB"><feFlood flood-opacity="0" result="BackgroundImageFix"/><feColorMatrix in="SourceAlpha" values="0 0 0 0 0 0 0 0 0 0 0 0 0 0 0 0 0 0 127 0" result="hardAlpha"/><feOffset dy="4"/><feGaussianBlur stdDeviation="2"/><feColorMatrix values="0 0 0 0 0 0 0 0 0 0 0 0 0 0 0 0 0 0 0.25 0"/><feBlend in2="BackgroundImageFix" result="effect1_dropShadow_79_49"/><feBlend in="SourceGraphic" in2="effect1_dropShadow_79_49" result="shape"/></filter></defs></svg>