<svg width="36" height="36" fill="none" xmlns="http://www.w3.org/2000/svg"><path d="M30.726 5.27c-7.03-7.029-18.427-7.027-25.456.004-7.028 7.03-7.027 18.427.004 25.455 7.03 7.029 18.427 7.027 25.456-.003a18 18 0 00-.004-25.456zM27.26 25.073l-.002.003v-.006l-.912.906a4.8 4.8 0 01-4.53 1.296 15.948 15.948 0 01-4.632-2.076 21.394 21.394 0 01-3.654-2.946 21.562 21.562 0 01-2.73-3.312 16.796 16.796 0 01-2.052-4.152 4.8 4.8 0 011.2-4.902l1.068-1.068a.762.762 0 011.078-.003l.002.003 3.372 3.372a.762.762 0 010 1.08l-1.98 1.98a1.614 1.614 0 00-.168 2.1 23.15 23.15 0 002.37 2.766c.96.964 2.004 1.842 3.12 2.622.645.45 1.518.374 2.076-.18l1.914-1.944a.762.762 0 011.078-.003l.002.003 3.378 3.384c.298.297.3.78.002 1.077z" fill="#47C13C"/></svg>