<svg width="28" height="25" fill="none" xmlns="http://www.w3.org/2000/svg"><g clip-path="url(#clip0_52_88)"><path fill-rule="evenodd" clip-rule="evenodd" d="M13.727 22.73c3.151 0 6.173-1.095 8.402-3.042 2.228-1.947 3.48-4.588 3.48-7.341 0-2.754-1.252-5.395-3.48-7.342-2.229-1.947-5.25-3.04-8.402-3.04-3.152 0-6.174 1.093-8.402 3.04-2.228 1.947-3.48 4.588-3.48 7.342 0 2.753 1.252 5.394 3.48 7.341 2.228 1.948 5.25 3.041 8.402 3.041zm0-22.25c3.601 0 7.055 1.251 9.602 3.476 2.546 2.226 3.977 5.244 3.977 8.39 0 3.148-1.43 6.166-3.977 8.391-2.547 2.225-6 3.476-9.602 3.476-3.602 0-7.056-1.25-9.602-3.476-2.547-2.225-3.978-5.243-3.978-8.39 0-3.147 1.431-6.165 3.978-8.39C6.67 1.73 10.125.48 13.727.48zM7.786 11.606a.915.915 0 00-.6.217.698.698 0 00-.249.525c0 .196.09.385.249.524a.91.91 0 00.6.217h9.833l-3.644 3.183a.698.698 0 00-.25.525.7.7 0 00.25.526.914.914 0 00.6.217.916.916 0 00.601-.218l5.093-4.45a.745.745 0 00.184-.24.661.661 0 000-.569.745.745 0 00-.184-.24l-5.093-4.45a.916.916 0 00-.6-.218.916.916 0 00-.601.218.698.698 0 00-.25.525c0 .197.09.386.25.525l3.644 3.183H7.786z" fill="#000"/></g><defs><clipPath id="clip0_52_88"><path fill="#fff" transform="rotate(-90 12.18 12.033)" d="M0 0h23.732v27.159H0z"/></clipPath></defs></svg>