<svg width="28" height="25" fill="none" xmlns="http://www.w3.org/2000/svg"><g clip-path="url(#clip0_52_85)"><path fill-rule="evenodd" clip-rule="evenodd" d="M13.723 2.218c-3.151 0-6.173 1.094-8.402 3.04-2.228 1.948-3.48 4.589-3.48 7.342 0 2.754 1.252 5.395 3.48 7.342 2.229 1.947 5.25 3.041 8.402 3.041 3.151 0 6.174-1.094 8.402-3.041 2.228-1.947 3.48-4.588 3.48-7.342 0-2.753-1.252-5.394-3.48-7.341-2.228-1.947-5.25-3.041-8.402-3.041zm0 22.248c-3.601 0-7.055-1.25-9.602-3.475C1.574 18.766.144 15.747.144 12.6c0-3.148 1.43-6.166 3.977-8.391 2.547-2.225 6-3.475 9.602-3.475 3.602 0 7.056 1.25 9.602 3.475 2.547 2.225 3.977 5.243 3.977 8.39 0 3.147-1.43 6.166-3.977 8.39-2.546 2.226-6 3.476-9.602 3.476zm5.941-11.124a.914.914 0 00.6-.217.697.697 0 00.249-.525.697.697 0 00-.249-.524.914.914 0 00-.6-.217H9.831l3.644-3.183a.698.698 0 00.25-.525.698.698 0 00-.25-.525.916.916 0 00-.6-.218.916.916 0 00-.601.218l-5.093 4.45a.744.744 0 00-.184.24.661.661 0 000 .569c.043.09.105.172.184.24l5.093 4.45a.91.91 0 00.6.218.916.916 0 00.601-.218.699.699 0 00.25-.525.699.699 0 00-.25-.525l-3.644-3.183h9.833z" fill="#000"/></g><defs><clipPath id="clip0_52_85"><path fill="#fff" transform="rotate(90 13.284 14.019)" d="M0 0h23.732v27.159H0z"/></clipPath></defs></svg>